<svg id="Camada_1" data-name="Camada 1" xmlns="http://www.w3.org/2000/svg" viewBox="0 0 392.58 430.02"><defs><style>.cls-1{fill:#a8692c;}.cls-2{fill:#c48e45;}.cls-3{fill:#fccb00;}.cls-4{fill:#467572;}.cls-5{fill:#432918;}.cls-6{fill:#bfc2c5;}.cls-7{fill:#9ba1a8;}.cls-10,.cls-8,.cls-9{fill:none;stroke-miterlimit:10;}.cls-10,.cls-8{stroke:#1d1d1b;}.cls-9{stroke:#4c341f;stroke-width:0.75px;}.cls-10{stroke-width:0.25px;}</style></defs><title>PAU</title><path class="cls-1" d="M440.68,133.9q-8,18.06-16,36.13-50.58,114.2-101.15,228.4A163.19,163.19,0,0,1,296.69,404l2.65-7.2Q328.58,317.37,357.8,238h0q2.15-5.85,4.3-11.68h0L415.23,82l54-12.54Z" transform="translate(-80.56 -7.43)"/><path class="cls-2" d="M469.23,69.43,415.23,82,396.1,73l-6-2.82-7.54-3.52h0L378.88,65l-12-5.6-13.05-6.11L334.09,44l-19.31-9-4.48-2.09h0L300,28l-5.79-2.71,7.77-4.39-18.16-.65-2.23-1-12.91-5.95-6.93-3.2L326,7.93Z" transform="translate(-80.56 -7.43)"/><path class="cls-3" d="M440.68,133.9a194.89,194.89,0,0,1,32,107.26C472.64,349.29,385,437,276.85,437S81.06,349.29,81.06,241.16c0-98.89,73.31-180.66,168.55-193.92q-1.26,3.84-2.5,7.68h0l-5.49,16.88h0l-3.21,9.85a164,164,0,0,0-86.46,265.77q3,3.48,6.1,6.77a159.29,159.29,0,0,0,14.28,13.33q4,3.3,8.19,6.37c2.79,2,5.65,4,8.57,5.82s5.73,3.52,8.68,5.14q4.13,2.28,8.4,4.32a161.84,161.84,0,0,0,19.23,7.74q7.5,2.47,15.3,4.24,6.41,1.44,13,2.37t13.39,1.34q4.86.28,9.79.29A164.09,164.09,0,0,0,424.68,170Q432.67,152,440.68,133.9Z" transform="translate(-80.56 -7.43)"/><path class="cls-4" d="M424.68,170a164.15,164.15,0,0,1-101.15,228.4Q374.11,284.22,424.68,170Z" transform="translate(-80.56 -7.43)"/><path class="cls-2" d="M415.23,82l-53.12,144.3c-2.71-29.78,4-48.22,11-59.77,6.09-10,14.24-17.75,17.57-33.85,2.22-10.76.3-15.64,3.43-24.86C398.42,95.13,407.93,86.91,415.23,82Z" transform="translate(-80.56 -7.43)"/><path class="cls-2" d="M396.1,73l19.13,9c-7.3,4.94-16.81,13.16-21.1,25.82-3.13,9.22-1.21,14.1-3.43,24.86-3.33,16.1-11.48,23.87-17.57,33.85-7.05,11.55-13.73,30-11,59.77h0q-2.16,5.83-4.3,11.68h0a137.55,137.55,0,0,0-9,13.37c-5.63,9.58-7.23,15-10.86,23.16-10.13,22.82-16.83,23.84-22.71,42.43-2,6.37-2.57,10.49-3.86,18.43-2.34,14.4-6.07,35.08-12.07,61.42l-2.65,7.2a164.38,164.38,0,0,1-19.84,1.19,121,121,0,0,0,17.2-40c5.25-23.48-.78-31.67,7.08-49.5,7.1-16.13,14.12-14.19,23.78-32.79,7.29-14,5.49-19.37,11.57-42.43,3-11.56,3.38-9.75,20.57-55.28,17.83-47.22,13.55-38.76,19.93-54a383.72,383.72,0,0,0,13.5-37.93C393,84.84,394.89,77.82,396.1,73Z" transform="translate(-80.56 -7.43)"/><path class="cls-2" d="M390.08,70.19l6,2.82c-1.21,4.81-3.07,11.83-5.62,20.21A383.72,383.72,0,0,1,377,131.15c-6.38,15.24-2.1,6.78-19.93,54-17.19,45.53-17.52,43.72-20.57,55.28-6.08,23.06-4.28,28.4-11.57,42.43-9.66,18.6-16.68,16.66-23.78,32.79-7.86,17.83-1.83,26-7.08,49.5a121,121,0,0,1-17.2,40q-4.94,0-9.79-.29h0c6.68-22.15,10.89-40.22,13.49-52.58,3-14.05,3.18-17.29,5.79-26.68,4.62-16.61,9.57-25.46,19-45.32,12.06-25.49,8.13-19.86,23.15-52.39,16.73-36.25,18.11-35.68,24.75-53.36,7.5-20,14.25-43.47,14.78-45.32,3.3-11.54,7.86-22.72,10.61-34.4a63.06,63.06,0,0,1,11.49-24.63Z" transform="translate(-80.56 -7.43)"/><path class="cls-2" d="M382.54,66.67l7.54,3.52a63.06,63.06,0,0,0-11.49,24.63c-2.75,11.68-7.31,22.86-10.61,34.4-.53,1.85-7.28,25.31-14.78,45.32-6.64,17.68-8,17.11-24.75,53.36-15,32.53-11.09,26.9-23.15,52.39-9.39,19.86-14.34,28.71-19,45.32-2.61,9.39-2.83,12.63-5.79,26.68-2.6,12.36-6.81,30.43-13.49,52.58h0q-6.78-.39-13.39-1.34h0c1.91-5.81,4.69-14.41,7.92-24.88,7.77-25.17,8.89-31.16,13.5-46,3.46-11.11,3.43-9.67,20.46-55.2,12.81-34.26,13.54-37,17.79-45.41,12-23.8,15.49-20.41,25.07-39.85,13.42-27.24,6.85-34.34,22.5-70.07,2.65-6.05,6.27-13.68,11.33-26.58C377,83.48,380.38,73.38,382.54,66.67Z" transform="translate(-80.56 -7.43)"/><path class="cls-2" d="M382.54,66.66h0c-2.16,6.71-5.56,16.81-10.3,28.9-5.06,12.9-8.68,20.53-11.33,26.58-15.65,35.73-9.08,42.83-22.5,70.07-9.58,19.44-13.05,16.05-25.07,39.85-4.25,8.42-5,11.15-17.79,45.41-17,45.53-17,44.09-20.46,55.2-4.61,14.81-5.73,20.8-13.5,46-3.23,10.47-6,19.07-7.92,24.88h0q-6.57-.93-13-2.37h0C248,374.6,255.08,353.42,260,339.43c20.26-57.76,28.65-63.53,43.72-112.5,9-29.2,8.79-36.2,18-54,11.63-22.48,20.56-29.08,34.07-52.71A248.78,248.78,0,0,0,378.88,65ZM337.05,185.34c2.69-7.6,1.45-15-2.76-16.47s-9.82,3.47-12.51,11.07-1.45,15,2.77,16.47S334.36,192.94,337.05,185.34Z" transform="translate(-80.56 -7.43)"/><path class="cls-2" d="M366.92,59.35l12,5.6a248.78,248.78,0,0,1-23.11,55.27c-13.51,23.63-22.44,30.23-34.07,52.71-9.21,17.8-9,24.8-18,54-15.07,49-23.46,54.74-43.72,112.5-4.9,14-12,35.17-19.29,61.73h0q-7.8-1.76-15.3-4.24h0a136,136,0,0,1,2.45-16.35c6.23-29.19,19.72-44.51,29.57-61.71,12.54-21.9,9.36-29.71,13-48.46,1.66-8.65,4.11-16,9.53-30.61a351.17,351.17,0,0,1,21.22-47.57c11.81-21.81,15.09-22,17.67-33.33,3.59-15.71-1.63-20.08,3.22-32.57S335.1,112,345.48,99A128.45,128.45,0,0,0,366.92,59.35Z" transform="translate(-80.56 -7.43)"/><path class="cls-2" d="M314.84,101.79l10.89,9.55a2,2,0,0,0,1.5-.5,1.74,1.74,0,0,0,.23-.25,2,2,0,0,0,.38-.93L315.58,97.4c3.7-11.29,9.19-16.56,13.51-19.29,7.28-4.6,13.51-3.39,19-9,4.63-4.76,5.65-11.28,5.82-15.87l13.05,6.11A128.45,128.45,0,0,1,345.48,99c-10.38,13-18.65,14.92-23.46,27.32s.37,16.86-3.22,32.57c-2.58,11.35-5.86,11.52-17.67,33.33a351.17,351.17,0,0,0-21.22,47.57c-5.42,14.61-7.87,22-9.53,30.61-3.61,18.75-.43,26.56-13,48.46-9.85,17.2-23.34,32.52-29.57,61.71a136,136,0,0,0-2.45,16.35h0a161.84,161.84,0,0,1-19.23-7.74q-4.28-2-8.4-4.32h0a245.26,245.26,0,0,1,11.43-31.93c5.19-11.8,8.09-16,12.21-27.64s2.52-11.72,6.43-24.43c6-19.39,10.12-20.6,15.43-37.93,5.66-18.48,1.32-18.4,6.43-30.21,7.76-17.95,17.44-16.45,24.43-33.43,4.92-12-.13-12,5.46-32.79,3.34-12.39,6-22.33,13.18-33.43,3.9-6,7.51-9.9,10.28-18a53.49,53.49,0,0,0,2.83-17.28l3.63-.67Z" transform="translate(-80.56 -7.43)"/><path class="cls-2" d="M357.8,238q-29.24,79.39-58.46,158.81c6-26.34,9.73-47,12.07-61.42,1.29-7.94,1.85-12.06,3.86-18.43,5.88-18.59,12.58-19.61,22.71-42.43,3.63-8.17,5.23-13.58,10.86-23.16A137.55,137.55,0,0,1,357.8,238Z" transform="translate(-80.56 -7.43)"/><path class="cls-2" d="M334.09,44l19.78,9.26c-.17,4.59-1.19,11.11-5.82,15.87-5.45,5.61-11.68,4.4-19,9-4.32,2.73-9.81,8-13.51,19.29L311.19,93l-5.49.74c2.38-10.48,6.64-17,10.21-21.1,3.38-3.87,5.65-5,9-9A44.22,44.22,0,0,0,334.09,44Z" transform="translate(-80.56 -7.43)"/><path class="cls-5" d="M334.29,168.87c4.21,1.5,5.45,8.87,2.76,16.47s-8.28,12.56-12.5,11.07-5.46-8.87-2.77-16.47S330.07,167.38,334.29,168.87Z" transform="translate(-80.56 -7.43)"/><path class="cls-2" d="M314.78,34.94l19.31,9a44.22,44.22,0,0,1-9.18,19.67c-3.35,4-5.62,5.13-9,9-3.57,4.08-7.83,10.62-10.21,21.1L289.49,96q1.89-5.36,3.92-10.77C300.07,67.42,307.27,50.67,314.78,34.94Z" transform="translate(-80.56 -7.43)"/><path class="cls-6" d="M315.58,97.4l12.26,12.26a2,2,0,0,1-.38.93L310.29,95.41l-30.76,4.24c0-.12-.06-.24-.1-.36q-.3-1-.66-1.89L289.49,96l16.21-2.2,5.49-.74Z" transform="translate(-80.56 -7.43)"/><path class="cls-7" d="M310.29,95.41l17.17,15.18a1.74,1.74,0,0,1-.23.25,2,2,0,0,1-1.5.5l-10.89-9.55-5.33-4.67-3.63.67-16.12,3-9.34,1.72-.25,0a22.86,22.86,0,0,0-.64-2.88Z" transform="translate(-80.56 -7.43)"/><path class="cls-2" d="M310.3,32.85l4.48,2.09c-7.51,15.73-14.71,32.48-21.37,50.24q-2,5.41-3.92,10.77L278.77,97.4a19.2,19.2,0,0,0-1.59-3.21A292.78,292.78,0,0,0,297.9,60.1,289.64,289.64,0,0,0,310.3,32.85Z" transform="translate(-80.56 -7.43)"/><path class="cls-2" d="M310.3,32.84h0A289.64,289.64,0,0,1,297.9,60.1a292.78,292.78,0,0,1-20.72,34.09c-1.09-1.69-2.24-2.63-3.13-2.36a1.22,1.22,0,0,0-.57.39l-1.11-.57c5.77-8.78,11.78-15.62,17.83-29A122.38,122.38,0,0,0,300,28Z" transform="translate(-80.56 -7.43)"/><path class="cls-2" d="M289.76,100.77l16.12-3a53.49,53.49,0,0,1-2.83,17.28c-2.77,8.1-6.38,12-10.28,18-7.17,11.1-9.84,21-13.18,33.43-5.59,20.78-.54,20.82-5.46,32.79-7,17-16.67,15.48-24.43,33.43-5.11,11.81-.77,11.73-6.43,30.21-5.31,17.33-9.47,18.54-15.43,37.93-3.91,12.71-2.35,12.94-6.43,24.43s-7,15.84-12.21,27.64a245.26,245.26,0,0,0-11.43,31.93h0q-4.42-2.43-8.68-5.14a263.3,263.3,0,0,0,12.4-35.16c1.72-6.28,2.12-9.14,10.29-42.42,2.71-11.08,3.29-13,3.86-14.79,4.35-13.71,7.7-17.2,12.85-29.57,8.43-20.23,3.81-21.31,10.93-32.79,7.83-12.61,13.31-11.15,16.72-21.85,2.49-7.83.76-12.38,5.14-23.79,2.27-5.91,3-5.47,4.5-10.29,3.22-10.55-.16-13.63,2.57-21.85,1.83-5.52,3.16-3.56,10.29-15.43,3-5,6.06-10.16,8.35-17.36A64.53,64.53,0,0,0,289.76,100.77Z" transform="translate(-80.56 -7.43)"/><path class="cls-1" d="M301.93,20.9l-7.77,4.39-25,50.25q7.32-27.65,14.63-55.29Z" transform="translate(-80.56 -7.43)"/><path class="cls-2" d="M294.16,25.29,300,28a122.38,122.38,0,0,1-9.75,34.68c-6.05,13.35-12.06,20.19-17.83,29a98.93,98.93,0,0,0-10.78,21.5c-2.4,6.54-3,10-7.07,20.25-3.1,7.84-4.51,10.31-11.25,24.75C230.73,185,227.78,193.24,225.91,199c-2.83,8.67-1.81,7.39-4.5,15.75-7.36,22.93-13.88,29-21.86,49.82-3.77,9.83-5.57,17-8.67,29.25-5,19.8-5.37,28.1-10.29,46.93-3.08,11.78-6.23,21.12-8.27,26.82A159.29,159.29,0,0,1,158,354.21a126.8,126.8,0,0,0,7.23-12.42c12.36-24.35,9.22-38,15.86-64.72,3.7-14.9,9.6-27.93,21.42-54,10.29-22.68,11.71-22.09,16.72-35.57,9.14-24.56,6-30.75,13.71-54.85,9.54-29.83,15.53-23.6,22.29-48.86C260.42,64.51,260,50,272,31.5a90.62,90.62,0,0,1,9.56-12.28l2.23,1q-7.32,27.64-14.63,55.29Z" transform="translate(-80.56 -7.43)"/><path class="cls-2" d="M280.42,102.49l9.34-1.72A64.53,64.53,0,0,1,287,114.43c-2.29,7.2-5.33,12.33-8.35,17.36-7.13,11.87-8.46,9.91-10.29,15.43-2.73,8.22.65,11.3-2.57,21.85-1.47,4.82-2.23,4.38-4.5,10.29-4.38,11.41-2.65,16-5.14,23.79-3.41,10.7-8.89,9.24-16.72,21.85-7.12,11.48-2.5,12.56-10.93,32.79-5.15,12.37-8.5,15.86-12.85,29.57-.57,1.78-1.15,3.71-3.86,14.79-8.17,33.28-8.57,36.14-10.29,42.42a263.3,263.3,0,0,1-12.4,35.16c-2.92-1.85-5.78-3.8-8.57-5.82h0c4.24-20.4,6.41-32,7.6-39.12.47-2.82,1.82-10.45,4.21-20.59.43-1.83.93-3.77,1.58-6.08,4.62-16.62,9.57-25.46,19-45.33,12-25.49,8.12-19.85,23.14-52.39,19.06-41.28,21.14-39.9,24.75-53.36,4-14.81,2.12-18.4,7.37-27,2.54-4.16,7-9.87,7.42-18.36a26.74,26.74,0,0,0-.74-7.66c1.35,2.94,3,4.79,4.25,4.43s1.59-2.8,1.11-6Z" transform="translate(-80.56 -7.43)"/><path class="cls-2" d="M268.63,13.27l12.91,5.95A90.62,90.62,0,0,0,272,31.5c-12,18.53-11.56,33-16.71,52.29-6.76,25.26-12.75,19-22.29,48.86-7.71,24.1-4.57,30.29-13.71,54.85-5,13.48-6.43,12.89-16.72,35.57-11.82,26.07-17.72,39.1-21.42,54-6.64,26.75-3.5,40.37-15.86,64.72A126.8,126.8,0,0,1,158,354.21q-3.15-3.29-6.1-6.77,36.1-111,72.23-222c4.18-3.77,16.42-15.78,18.67-34.77a52.43,52.43,0,0,0-1.23-18.83h0l5.49-16.88h0A59.75,59.75,0,0,0,263,34.07a59.52,59.52,0,0,0,5.15-19.71Z" transform="translate(-80.56 -7.43)"/><path class="cls-7" d="M274.81,104.05a23.68,23.68,0,0,1-1.13-3c-.18-.58-.33-1.16-.45-1.72a3.42,3.42,0,0,0,3.63,2.22,3.34,3.34,0,0,0,2.57-2.23c0,.12.07.24.1.36a22.86,22.86,0,0,1,.64,2.88c.48,3.15.09,5.59-1.11,6S276.16,107,274.81,104.05Z" transform="translate(-80.56 -7.43)"/><path class="cls-6" d="M278.77,97.4q.36.9.66,1.89a3.34,3.34,0,0,1-2.57,2.23,3.42,3.42,0,0,1-3.63-2.22c-.74-3.26-.64-6,.25-7.08a1.22,1.22,0,0,1,.57-.39c.89-.27,2,.67,3.13,2.36A19.2,19.2,0,0,1,278.77,97.4Z" transform="translate(-80.56 -7.43)"/><path class="cls-2" d="M273.23,99.3c.12.56.27,1.14.45,1.72a23.68,23.68,0,0,0,1.13,3,26.74,26.74,0,0,1,.74,7.66c-.42,8.49-4.88,14.2-7.42,18.36-5.25,8.56-3.38,12.15-7.37,27-3.61,13.46-5.69,12.08-24.75,53.36-15,32.54-11.09,26.9-23.14,52.39-9.39,19.87-14.34,28.71-19,45.33-.65,2.31-1.15,4.25-1.58,6.08-2.39,10.14-3.74,17.77-4.21,20.59-1.19,7.11-3.36,18.72-7.6,39.12h0q-4.2-3.06-8.19-6.37c2-5.7,5.19-15,8.27-26.82,4.92-18.83,5.28-27.13,10.29-46.93,3.1-12.29,4.9-19.42,8.67-29.25,8-20.79,14.5-26.89,21.86-49.82,2.69-8.36,1.67-7.08,4.5-15.75,1.87-5.73,4.82-14,17.36-40.82,6.74-14.44,8.15-16.91,11.25-24.75,4.06-10.29,4.67-13.71,7.07-20.25a98.93,98.93,0,0,1,10.78-21.5l1.11.57C272.59,93.26,272.49,96,273.23,99.3Z" transform="translate(-80.56 -7.43)"/><path class="cls-2" d="M249.61,47.24,261.7,10.07l6.93,3.2-.5,1.09A59.52,59.52,0,0,1,263,34.07a59.75,59.75,0,0,1-15.87,20.85Q248.36,51.08,249.61,47.24Z" transform="translate(-80.56 -7.43)"/><path class="cls-2" d="M238.4,81.67l3.21-9.85a52.43,52.43,0,0,1,1.23,18.83c-2.25,19-14.49,31-18.67,34.77Z" transform="translate(-80.56 -7.43)"/><path class="cls-4" d="M238.4,81.67l-14.23,43.75q-36.12,111-72.23,222A164,164,0,0,1,238.4,81.67Z" transform="translate(-80.56 -7.43)"/><path class="cls-8" d="M440.64,133.84l0,.06a194.89,194.89,0,0,1,32,107.26C472.64,349.29,385,437,276.85,437S81.06,349.29,81.06,241.16c0-98.89,73.31-180.66,168.55-193.92h0" transform="translate(-80.56 -7.43)"/><path class="cls-8" d="M424.6,169.87s0,.11.08.16A164,164,0,0,1,276.85,405.17q-4.94,0-9.79-.29-6.78-.39-13.39-1.34t-13-2.37q-7.8-1.76-15.3-4.24a161.84,161.84,0,0,1-19.23-7.74q-4.28-2-8.4-4.32-4.42-2.43-8.68-5.14c-2.92-1.85-5.78-3.8-8.57-5.82s-5.53-4.17-8.19-6.37A159.29,159.29,0,0,1,158,354.21q-3.15-3.29-6.1-6.77A164,164,0,0,1,238.4,81.67h.06" transform="translate(-80.56 -7.43)"/><path class="cls-8" d="M323.53,398.43Q374.11,284.22,424.68,170q8-18.06,16-36.13l28.55-64.47" transform="translate(-80.56 -7.43)"/><path class="cls-8" d="M247.11,54.92q1.24-3.84,2.5-7.68L261.7,10.07" transform="translate(-80.56 -7.43)"/><path class="cls-8" d="M241.61,71.81l5.49-16.88" transform="translate(-80.56 -7.43)"/><path class="cls-8" d="M151.94,347.44q36.1-111,72.23-222L238.4,81.67l3.21-9.85" transform="translate(-80.56 -7.43)"/><path class="cls-8" d="M469.23,69.43,326,7.93" transform="translate(-80.56 -7.43)"/><path class="cls-8" d="M261.7,10.07,326,7.93" transform="translate(-80.56 -7.43)"/><path class="cls-8" d="M362.11,226.27,415.23,82" transform="translate(-80.56 -7.43)"/><path class="cls-8" d="M357.81,238q2.15-5.85,4.3-11.68" transform="translate(-80.56 -7.43)"/><path class="cls-8" d="M296.69,404l2.65-7.2Q328.58,317.37,357.8,238" transform="translate(-80.56 -7.43)"/><path class="cls-8" d="M415.23,82l54-12.54" transform="translate(-80.56 -7.43)"/><path class="cls-8" d="M382.54,66.67l7.54,3.52,6,2.82,19.13,9" transform="translate(-80.56 -7.43)"/><path class="cls-8" d="M310.3,32.85l4.48,2.09,19.31,9,19.78,9.26,13.05,6.11,12,5.6,3.66,1.71" transform="translate(-80.56 -7.43)"/><path class="cls-8" d="M294.16,25.29,300,28l10.35,4.84" transform="translate(-80.56 -7.43)"/><path class="cls-8" d="M283.77,20.25l18.16.65-7.77,4.39" transform="translate(-80.56 -7.43)"/><path class="cls-8" d="M283.77,20.25l-2.23-1-12.91-5.95-6.93-3.2" transform="translate(-80.56 -7.43)"/><path class="cls-8" d="M294.16,25.29l-25,50.25q7.32-27.65,14.63-55.29" transform="translate(-80.56 -7.43)"/><path class="cls-8" d="M327.84,109.66,315.58,97.4,311.19,93l-5.49.74L289.49,96,278.77,97.4l-.24,0" transform="translate(-80.56 -7.43)"/><path class="cls-8" d="M325.73,111.34l-10.89-9.55-5.33-4.67-3.63.67-16.12,3-9.34,1.72" transform="translate(-80.56 -7.43)"/><path class="cls-8" d="M327.84,109.66a2,2,0,0,1-.38.93,1.74,1.74,0,0,1-.23.25,2,2,0,0,1-1.5.5" transform="translate(-80.56 -7.43)"/><path class="cls-8" d="M279.43,99.29c0,.12.07.24.1.36a22.86,22.86,0,0,1,.64,2.88c.48,3.15.09,5.59-1.11,6s-2.9-1.49-4.25-4.43a23.68,23.68,0,0,1-1.13-3c-.18-.58-.33-1.16-.45-1.72-.74-3.26-.64-6,.25-7.08a1.22,1.22,0,0,1,.57-.39c.89-.27,2,.67,3.13,2.36a19.2,19.2,0,0,1,1.59,3.21Q279.13,98.3,279.43,99.29Z" transform="translate(-80.56 -7.43)"/><path class="cls-9" d="M378.88,65a248.78,248.78,0,0,1-23.11,55.27c-13.51,23.63-22.44,30.23-34.07,52.71-9.21,17.8-9,24.8-18,54-15.07,49-23.46,54.74-43.72,112.5-4.9,14-12,35.17-19.29,61.73" transform="translate(-80.56 -7.43)"/><path class="cls-9" d="M382.54,66.66h0c-2.16,6.71-5.56,16.81-10.3,28.9-5.06,12.9-8.68,20.53-11.33,26.58-15.65,35.73-9.08,42.83-22.5,70.07-9.58,19.44-13.05,16.05-25.07,39.85-4.25,8.42-5,11.15-17.79,45.41-17,45.53-17,44.09-20.46,55.2-4.61,14.81-5.73,20.8-13.5,46-3.23,10.47-6,19.07-7.92,24.88" transform="translate(-80.56 -7.43)"/><path class="cls-9" d="M267.06,404.87c6.68-22.15,10.89-40.22,13.49-52.58,3-14.05,3.18-17.29,5.79-26.68,4.62-16.61,9.57-25.46,19-45.32,12.06-25.49,8.13-19.86,23.15-52.39,16.73-36.25,18.11-35.68,24.75-53.36,7.5-20,14.25-43.47,14.78-45.32,3.3-11.54,7.86-22.72,10.61-34.4a63.06,63.06,0,0,1,11.49-24.63" transform="translate(-80.56 -7.43)"/><path class="cls-9" d="M180.52,373.9c4.24-20.4,6.41-32,7.6-39.12.47-2.82,1.82-10.45,4.21-20.59.43-1.83.93-3.77,1.58-6.08,4.62-16.62,9.57-25.46,19-45.33,12-25.49,8.12-19.85,23.14-52.39,19.06-41.28,21.14-39.9,24.75-53.36,4-14.81,2.12-18.4,7.37-27,2.54-4.16,7-9.87,7.42-18.36a26.74,26.74,0,0,0-.74-7.66v0" transform="translate(-80.56 -7.43)"/><path class="cls-10" d="M321.78,179.94c-2.69,7.6-1.45,15,2.77,16.47s9.81-3.47,12.5-11.07,1.45-15-2.76-16.47S324.47,172.34,321.78,179.94Z" transform="translate(-80.56 -7.43)"/><path class="cls-9" d="M396.1,73c-1.21,4.81-3.07,11.83-5.62,20.21A383.72,383.72,0,0,1,377,131.15c-6.38,15.24-2.1,6.78-19.93,54-17.19,45.53-17.52,43.72-20.57,55.28-6.08,23.06-4.28,28.4-11.57,42.43-9.66,18.6-16.68,16.66-23.78,32.79-7.86,17.83-1.83,26-7.08,49.5a121,121,0,0,1-17.2,40" transform="translate(-80.56 -7.43)"/><path class="cls-9" d="M366.92,59.35A128.45,128.45,0,0,1,345.48,99c-10.38,13-18.65,14.92-23.46,27.32s.37,16.86-3.22,32.57c-2.58,11.35-5.86,11.52-17.67,33.33a351.17,351.17,0,0,0-21.22,47.57c-5.42,14.61-7.87,22-9.53,30.61-3.61,18.75-.43,26.56-13,48.46-9.85,17.2-23.34,32.52-29.57,61.71a136,136,0,0,0-2.45,16.35" transform="translate(-80.56 -7.43)"/><path class="cls-9" d="M314.84,101.79c-.93,3.1-2.33,7.7-4.07,13.28-2.71,8.69-4.07,13-4.5,14.15-6.66,17-18.46,20.45-16.82,29.57.45,2.54,2,6,4.39,6.32s5.11-2.21,6.86-6.43" transform="translate(-80.56 -7.43)"/><path class="cls-9" d="M295.66,159a6.61,6.61,0,0,1,.64-5.25,6.15,6.15,0,0,1,7.19-2.45c2.31,1,3,3.91,3.26,5,2.17,9.11-10.93,23.17-15.27,28.17-8.66,10-12.71,23.47-24.43,48.86-12.79,27.73-4.82,30.53-18.64,57.21-7.83,15.12-12.51,18.34-18.64,34.72-5.8,15.49-3.86,18.64-10.29,29.57-3.95,6.73-8.8,12.52-11.57,23.14a57.34,57.34,0,0,0-1.75,11.19" transform="translate(-80.56 -7.43)"/><path class="cls-9" d="M197.77,384.86a245.26,245.26,0,0,1,11.43-31.93c5.19-11.8,8.09-16,12.21-27.64s2.52-11.72,6.43-24.43c6-19.39,10.12-20.6,15.43-37.93,5.66-18.48,1.32-18.4,6.43-30.21,7.76-17.95,17.44-16.45,24.43-33.43,4.92-12-.13-12,5.46-32.79,3.34-12.39,6-22.33,13.18-33.43,3.9-6,7.51-9.9,10.28-18a53.49,53.49,0,0,0,2.83-17.28" transform="translate(-80.56 -7.43)"/><path class="cls-9" d="M305.7,93.75c2.38-10.48,6.64-17,10.21-21.1,3.38-3.87,5.65-5,9-9A44.22,44.22,0,0,0,334.09,44" transform="translate(-80.56 -7.43)"/><path class="cls-9" d="M315.58,97.4c3.7-11.29,9.19-16.56,13.51-19.29,7.28-4.6,13.51-3.39,19-9,4.63-4.76,5.65-11.28,5.82-15.87" transform="translate(-80.56 -7.43)"/><path class="cls-9" d="M189.08,379.73a263.3,263.3,0,0,0,12.4-35.16c1.72-6.28,2.12-9.14,10.29-42.42,2.71-11.08,3.29-13,3.86-14.79,4.35-13.71,7.7-17.2,12.85-29.57,8.43-20.23,3.81-21.31,10.93-32.79,7.83-12.61,13.31-11.15,16.72-21.85,2.49-7.83.76-12.38,5.14-23.79,2.27-5.91,3-5.47,4.5-10.29,3.22-10.55-.16-13.63,2.57-21.85,1.83-5.52,3.16-3.56,10.29-15.43,3-5,6.06-10.16,8.35-17.36a64.53,64.53,0,0,0,2.78-13.66" transform="translate(-80.56 -7.43)"/><path class="cls-9" d="M289.49,96q1.89-5.36,3.92-10.77c6.66-17.76,13.86-34.51,21.37-50.24" transform="translate(-80.56 -7.43)"/><path class="cls-9" d="M300,28a122.38,122.38,0,0,1-9.75,34.68c-6.05,13.35-12.06,20.19-17.83,29a98.93,98.93,0,0,0-10.78,21.5c-2.4,6.54-3,10-7.07,20.25-3.1,7.84-4.51,10.31-11.25,24.75C230.73,185,227.78,193.24,225.91,199c-2.83,8.67-1.81,7.39-4.5,15.75-7.36,22.93-13.88,29-21.86,49.82-3.77,9.83-5.57,17-8.67,29.25-5,19.8-5.37,28.1-10.29,46.93-3.08,11.78-6.23,21.12-8.27,26.82" transform="translate(-80.56 -7.43)"/><path class="cls-9" d="M277.18,94.19A292.78,292.78,0,0,0,297.9,60.1a289.64,289.64,0,0,0,12.4-27.25h0" transform="translate(-80.56 -7.43)"/><path class="cls-9" d="M281.54,19.22A90.62,90.62,0,0,0,272,31.5c-12,18.53-11.56,33-16.71,52.29-6.76,25.26-12.75,19-22.29,48.86-7.71,24.1-4.57,30.29-13.71,54.85-5,13.48-6.43,12.89-16.72,35.57-11.82,26.07-17.72,39.1-21.42,54-6.64,26.75-3.5,40.37-15.86,64.72A126.8,126.8,0,0,1,158,354.21" transform="translate(-80.56 -7.43)"/><path class="cls-9" d="M165.58,361.63c2.57-6.52,5.82-15.4,9-26.14,2.34-7.81,3.84-13.84,5.22-19.42,1.89-7.64,4.18-17.65,6.43-29.57" transform="translate(-80.56 -7.43)"/><path class="cls-9" d="M256.13,103.07a127.19,127.19,0,0,1-21,49.72" transform="translate(-80.56 -7.43)"/><path class="cls-9" d="M268.13,14.36A59.52,59.52,0,0,1,263,34.07a59.75,59.75,0,0,1-15.87,20.85h0" transform="translate(-80.56 -7.43)"/><path class="cls-9" d="M241.61,71.81h0a52.43,52.43,0,0,1,1.23,18.83c-2.25,19-14.49,31-18.67,34.77" transform="translate(-80.56 -7.43)"/><path class="cls-9" d="M415.23,82c-7.3,4.94-16.81,13.16-21.1,25.82-3.13,9.22-1.21,14.1-3.43,24.86-3.33,16.1-11.48,23.87-17.57,33.85-7.05,11.55-13.73,30-11,59.77h0" transform="translate(-80.56 -7.43)"/><path class="cls-9" d="M331.55,135.65a82,82,0,0,0,24.43-36" transform="translate(-80.56 -7.43)"/><path class="cls-9" d="M357.81,238h0a137.55,137.55,0,0,0-9,13.37c-5.63,9.58-7.23,15-10.86,23.16-10.13,22.82-16.83,23.84-22.71,42.43-2,6.37-2.57,10.49-3.86,18.43-2.34,14.4-6.07,35.08-12.07,61.42" transform="translate(-80.56 -7.43)"/><path d="M124.75,164a6,6,0,0,0,.2,1,1.61,1.61,0,0,1-.18,1.15c0,.1-.28.46-.68,1.1a.91.91,0,0,1-.69,0l-4.8-1.08a3.12,3.12,0,0,1-.44-.12.36.36,0,0,1-.21-.38,6,6,0,0,1,.52-1.18,3.72,3.72,0,0,1,.86-1.26,6.17,6.17,0,0,1,2-.47q3.45-.54,4.19-2c.35-.69.24-1.18-.35-1.48s-2.68-.08-5.87.89a49,49,0,0,1-7.7,1.87,7.41,7.41,0,0,1-4.23-.82,4.76,4.76,0,0,1-2.74-3.77,8.14,8.14,0,0,1,.88-4.87,9.25,9.25,0,0,1,2-2.58,2.68,2.68,0,0,0,.63-.74.54.54,0,0,0,0-.55c-.21-.38-.09-1,.35-1.84a1.9,1.9,0,0,1,.43-.62.83.83,0,0,1,.63,0l4.69,1.12q.9.21,1,.24c.24.12.17.55-.2,1.27q-.77,1.47-1.14,1.62a6.11,6.11,0,0,1-1.48.2c-2.64.15-4.28.84-4.9,2a2.07,2.07,0,0,0-.27,1.25,1,1,0,0,0,.54.81,3.48,3.48,0,0,0,2.34,0c1-.25,2.24-.59,3.59-1a45.72,45.72,0,0,1,7.43-2,7.41,7.41,0,0,1,4.56.65,4.93,4.93,0,0,1,2.72,3.43,6.63,6.63,0,0,1-.69,4.6A12.61,12.61,0,0,1,124.75,164Z" transform="translate(-80.56 -7.43)"/><path d="M117,178.76l-7.47-2.95-.58,1.45a2.15,2.15,0,0,0-.19.94,1.15,1.15,0,0,0,.51.7,4.07,4.07,0,0,1,1,.86.67.67,0,0,1,0,.57,10.77,10.77,0,0,1-.84,1.89c-.12.13-.37.11-.75,0l-4.35-1.72q-.41-.17-.45-.42a4.09,4.09,0,0,1,.4-1.38,2.08,2.08,0,0,1,.55-.91,2,2,0,0,1,1.11-.12,1.94,1.94,0,0,0,1-.12,1.39,1.39,0,0,0,.43-.64l.66-1.67-9-3.56-.45,1.13a2.3,2.3,0,0,0-.21,1.59,9.7,9.7,0,0,0,1.57,2.1,2.38,2.38,0,0,1,.64,1.12,3.13,3.13,0,0,1-.31,1.44c-.35.88-.7,1.26-1.05,1.12a2,2,0,0,1-.42-.27l-2.66-2a3.71,3.71,0,0,1-.83-.74q-.1-.21.18-.93l5.65-14.3q.21-.54.42-.63a1.62,1.62,0,0,1,.93.2c.3.12.42.46.36,1-.11.87,0,1.37.36,1.51l16.31,6.44c.17.06.46-.2.88-.76.28-.39.49-.6.62-.64a1.73,1.73,0,0,1,.81.19c.34.13.52.25.56.37a1.8,1.8,0,0,1-.2.78l-5.41,13.68a2.11,2.11,0,0,1-.4.71.85.85,0,0,1-.64.17l-3.81-.25a1.71,1.71,0,0,1-.38-.05c-.24-.09-.22-.48,0-1.17a5.08,5.08,0,0,1,.78-1.49,1.86,1.86,0,0,1,1.12-.43,7.85,7.85,0,0,0,2.08-.5,1.63,1.63,0,0,0,.88-.89Z" transform="translate(-80.56 -7.43)"/><path d="M92.56,191.4l-.35,1.27a2,2,0,0,0,.07,1.57,8.67,8.67,0,0,0,1.86,1.83,1.32,1.32,0,0,1,.63.87,4,4,0,0,1-.21,1.32,4.84,4.84,0,0,1-.46,1.26.38.38,0,0,1-.45.19,2.59,2.59,0,0,1-.58-.28l-3-1.67a1.2,1.2,0,0,1-.56-.53,1.56,1.56,0,0,1,.07-.9l4-14.62c.17-.62.49-.86,1-.73a1.28,1.28,0,0,1,.67.31.94.94,0,0,1,.09.59,1.41,1.41,0,0,0,1.07,1.66L112.48,188c.33.09.65-.11.94-.6s.45-.68.62-.74a1.39,1.39,0,0,1,.77,0c.39.11.63.22.7.34s0,.36-.06.75L112.63,198a1.38,1.38,0,0,1-.39.74c-.15.11-.47.1-1,0a.87.87,0,0,1-.56-.31,1.55,1.55,0,0,1-.08-.82c.05-.78-.14-1.23-.59-1.36Z" transform="translate(-80.56 -7.43)"/><path d="M109.37,216.29a11.76,11.76,0,0,1-2.2,5.61,11,11,0,0,1-4.47,3.44A12.44,12.44,0,0,1,96,226a11.57,11.57,0,0,1-7.6-4.17q-2.85-3.5-2.06-9A10.83,10.83,0,0,1,90.68,205a11.63,11.63,0,0,1,8.7-1.83,11.73,11.73,0,0,1,8,4.29A11.14,11.14,0,0,1,109.37,216.29Zm-3.55,1.33c1.16.16,1.83-.37,2-1.6a2.1,2.1,0,0,0-.24-1.39,1.33,1.33,0,0,0-1-.69l-16.8-2.4a1.56,1.56,0,0,0-1.37.36,2,2,0,0,0-.62,1.24,1.87,1.87,0,0,0,.29,1.42,1.46,1.46,0,0,0,1,.67Z" transform="translate(-80.56 -7.43)"/><path d="M92.7,250.74l-4.67.31q-.81.06-1,1.23a1.7,1.7,0,0,1-.29.79,1.15,1.15,0,0,1-.79.27c-.38,0-.61,0-.71-.2a2.65,2.65,0,0,1-.21-1l-.7-10.41c0-.55.24-.85.83-.89a1.92,1.92,0,0,1,.87.06c.11.07.22.32.34.76a1.9,1.9,0,0,0,.29.73.65.65,0,0,0,.47.12l17-1.15c.4,0,.7-.45.89-1.28.11-.44.31-.68.6-.71l.65-.07a.73.73,0,0,1,.57.13,1.39,1.39,0,0,1,.18.77l.8,11.77a14.59,14.59,0,0,1-1.44,8.24,6.23,6.23,0,0,1-5.29,3.39,6.7,6.7,0,0,1-3.58-.69A5.9,5.9,0,0,1,95,260.71a14.94,14.94,0,0,1-1.41-3.19,15.58,15.58,0,0,1-.73-3.91Zm13.37-.91-11.76.8.11,1.61a2.24,2.24,0,0,0,.66,1.44,2.27,2.27,0,0,0,1.89.53l7-.47c1.57-.11,2.3-1,2.18-2.73Z" transform="translate(-80.56 -7.43)"/><path d="M92.78,274.88l-1-5.65-1.32,0a.23.23,0,0,1-.13,0,1.71,1.71,0,0,0-.76-.06c-.33.06-.54.47-.64,1.22a1.35,1.35,0,0,1-.25.76,1.12,1.12,0,0,1-.61.26,1.24,1.24,0,0,1-.7,0c-.09-.05-.16-.21-.21-.46L86,265c-.07-.34.12-.54.54-.62a1.42,1.42,0,0,1,1.38.57,1.64,1.64,0,0,0,1.07.69l17,1.18a2.44,2.44,0,0,0,.67,0c.29,0,.48-.43.58-1.12a.71.71,0,0,1,.65-.59,2,2,0,0,1,1,0c.13.07.24.3.31.69l1.6,8.66a1.25,1.25,0,0,1-.25,1.19,6.31,6.31,0,0,1-1.87,1l-1.13.49-14.5,6.54a2.64,2.64,0,0,0-1.44,1.65,1.85,1.85,0,0,1-.17.43,1,1,0,0,1-.53.19,1.49,1.49,0,0,1-.89,0,1.06,1.06,0,0,1-.29-.65L87.9,275.15c-.06-.3.09-.48.44-.55a2,2,0,0,1,.85,0,1.82,1.82,0,0,1,.51.58c.3.49.6.71.92.65A12.71,12.71,0,0,0,92.78,274.88Zm11.89-5-11.28-.56.94,5Z" transform="translate(-80.56 -7.43)"/><path d="M112.58,282.78l3,9.52a1,1,0,0,1,.06.65c-.06.12-.3.24-.74.38a.88.88,0,0,1-1.07-.36,1.85,1.85,0,0,0-.54-.55,1.12,1.12,0,0,0-.73.05l-15,4.72a1.23,1.23,0,0,0-.83.89,2.68,2.68,0,0,0,.08,1.57,2.38,2.38,0,0,0,.86,1.25,1.26,1.26,0,0,0,1.13.27l15-4.72a1,1,0,0,0,.51-.29,2,2,0,0,0,.19-.72,1.2,1.2,0,0,1,.84-1.09c.38-.12.63-.12.75,0a1.5,1.5,0,0,1,.31.57l1.49,4.75c.16.53.09.84-.24.95l-.64.2a1.14,1.14,0,0,1-.57.08c-.1,0-.22-.18-.37-.44-.36-.64-.76-.9-1.19-.76l-14.64,4.6a3.91,3.91,0,0,1-3.91-.93,10.89,10.89,0,0,1-2.93-5.07,11.82,11.82,0,0,1-.58-6.37,4.3,4.3,0,0,1,3.07-3.22L110,284.25c.37-.11.55-.52.53-1.22a1.44,1.44,0,0,1,.06-.66.88.88,0,0,1,.46-.26,2,2,0,0,1,1-.15C112.26,282,112.42,282.29,112.58,282.78Z" transform="translate(-80.56 -7.43)"/><path d="M114.23,327l-4.1,2.27c-.48.27-.6.77-.38,1.53a1.64,1.64,0,0,1,.08.84,1.16,1.16,0,0,1-.6.58c-.33.19-.57.22-.73.12a2.4,2.4,0,0,1-.61-.82l-5.07-9.13a.77.77,0,0,1,.37-1.16A1.85,1.85,0,0,1,104,321q.19,0,.63.54a1.94,1.94,0,0,0,.58.54.59.59,0,0,0,.47-.1l14.85-8.24c.36-.19.44-.71.26-1.54-.09-.44,0-.74.24-.89l.57-.34a.66.66,0,0,1,.57-.12c.13.05.29.26.49.61l5.72,10.32a14.55,14.55,0,0,1,2.2,8.06,6.23,6.23,0,0,1-3.34,5.33,6.62,6.62,0,0,1-3.54.89,5.87,5.87,0,0,1-3.13-.95,15,15,0,0,1-2.63-2.28,16.38,16.38,0,0,1-2.33-3.23Zm11.71-6.5-10.3,5.72.78,1.41a2.1,2.1,0,0,0,3.14.7l6.14-3.4q2.07-1.15.81-3.4Z" transform="translate(-80.56 -7.43)"/><path d="M130.36,347.88l-5.51,4.27a1.57,1.57,0,0,0-.46.49,1.17,1.17,0,0,0,.08.67.85.85,0,0,1-.26,1c-.43.33-.75.47-.94.42a1.52,1.52,0,0,1-.7-.58l-6-7.68c-.33-.44-.31-.81.07-1.11a3.73,3.73,0,0,1,.76-.5c.14,0,.31,0,.51.19.68.54,1.26.63,1.74.26l13-10.11a1.11,1.11,0,0,0,.2-1.56,1.89,1.89,0,0,1-.25-.68c0-.12.15-.29.44-.51.57-.45,1-.42,1.45.09l7.82,10.07a13.19,13.19,0,0,1,2.78,6.43,5.26,5.26,0,0,1-1.86,5.23q-3.3,2.56-8.6-2.17,3.24,5.57,0,8.07l-2.64,2.05a.71.71,0,0,0-.18.81.83.83,0,0,1-.22,1c-.43.33-.72.48-.87.46s-.36-.21-.65-.57L126.35,359a2.37,2.37,0,0,1-.52-1.91,2.73,2.73,0,0,1,1.06-1.73l4.48-3.47q1.31-1-.38-3.19Zm8.77-6.82-7.48,5.82.91,1.18q1.41,1.8,3.61.08l3.58-2.77a1.88,1.88,0,0,0,.87-1.6,4.16,4.16,0,0,0-1-2.09Z" transform="translate(-80.56 -7.43)"/><path d="M144.26,371.28l-4.11-4-1.1.74a.33.33,0,0,1-.12.06,1.9,1.9,0,0,0-.65.39c-.24.24-.18.7.17,1.37a1.5,1.5,0,0,1,.25.76,1.18,1.18,0,0,1-.36.56c-.27.28-.45.42-.56.43s-.25-.08-.43-.26L133,367.09c-.24-.24-.21-.51.09-.82a1.41,1.41,0,0,1,1.45-.33,1.63,1.63,0,0,0,1.28-.06l14.6-8.87a2.3,2.3,0,0,0,.55-.4c.2-.2.14-.62-.18-1.24a.73.73,0,0,1,.19-.86,1.94,1.94,0,0,1,.77-.59c.15,0,.37.11.66.38l6.3,6.15a1.25,1.25,0,0,1,.48,1.12,6.23,6.23,0,0,1-.95,1.9l-.63,1-8.08,13.71a2.6,2.6,0,0,0-.22,2.17,1.94,1.94,0,0,1,.11.45c0,.09-.11.24-.32.47s-.58.51-.73.51-.35-.12-.61-.36l-7.33-7.14c-.22-.22-.2-.45,0-.71a1.89,1.89,0,0,1,.68-.52,1.57,1.57,0,0,1,.75.18c.52.22.9.22,1.12,0A11.46,11.46,0,0,0,144.26,371.28Zm6.82-10.95-9.53,6.05,3.67,3.58Z" transform="translate(-80.56 -7.43)"/><path d="M177,377.17l-.88-.57a1,1,0,0,0-.93-.1,6.79,6.79,0,0,0-1.79,1.51,1.46,1.46,0,0,1-1,.57,3.2,3.2,0,0,1-1.27-.59,3.46,3.46,0,0,1-1-.82.57.57,0,0,1,.08-.64c.09-.15.19-.28.29-.42l2-2.59c.24-.31.46-.46.68-.46a3.44,3.44,0,0,1,1.26.61l14.18,9.22a2.12,2.12,0,0,1,.69.58c.05.12,0,.4-.23.82l-1.25,2.65a6.08,6.08,0,0,1-.34.6,1,1,0,0,1-.5.45c-.18.06-.52-.07-1-.41a5.27,5.27,0,0,1-1.19-.94,1.32,1.32,0,0,1,0-1,10.1,10.1,0,0,0,.42-2.12,1.25,1.25,0,0,0-.48-1.24l-.58-.38L174.38,397c-.28.43-.16.93.35,1.5a.81.81,0,0,1,.07,1.29c-.26.4-.47.59-.63.58a2.24,2.24,0,0,1-.86-.41l-8.52-5.54a1.46,1.46,0,0,1-.57-.54c-.05-.14.05-.4.29-.77a.87.87,0,0,1,1.13-.4,2.25,2.25,0,0,0,.92.2.67.67,0,0,0,.46-.36Z" transform="translate(-80.56 -7.43)"/><path d="M201.31,388.87a11.82,11.82,0,0,1,4.69,3.79,10.9,10.9,0,0,1,1.94,5.3,12.4,12.4,0,0,1-1.42,6.6,11.56,11.56,0,0,1-6.27,6q-4.19,1.68-9.19-.73a10.85,10.85,0,0,1-6.1-6.51,13,13,0,0,1,7.35-15.16A11.14,11.14,0,0,1,201.31,388.87Zm.2,3.8a1.61,1.61,0,0,0-.92-2.4,2.16,2.16,0,0,0-1.4-.18,1.33,1.33,0,0,0-1,.72l-7.33,15.31a1.57,1.57,0,0,0-.07,1.41,2.05,2.05,0,0,0,1,1,2,2,0,0,0,1.45.15,1.5,1.5,0,0,0,.94-.77Z" transform="translate(-80.56 -7.43)"/><path d="M207.76,413.62l5.29-16.18q0-.3-.66-.66a1.59,1.59,0,0,1-.67-.57,1.48,1.48,0,0,1,.1-.95c.1-.33.27-.52.5-.56a4,4,0,0,1,1.52.32l10.49,3.43a11.57,11.57,0,0,1,6.61,4.95q2.12,3.5.2,9.36-1.74,5.36-5.46,7.07a11.15,11.15,0,0,1-8.4.19l-11.57-3.78a1.2,1.2,0,0,1-.62-.36.8.8,0,0,1,0-.68,2.2,2.2,0,0,1,.3-.7c.07-.08.32-.13.74-.13C207.06,414.38,207.59,414.13,207.76,413.62Zm13.71-14.35-6.05,18.51,1.16.38a2.45,2.45,0,0,0,2,0,3.52,3.52,0,0,0,1.29-2l4.46-13.66a1.86,1.86,0,0,0-.22-1.68,3.29,3.29,0,0,0-1.81-1.22Z" transform="translate(-80.56 -7.43)"/><path d="M242.8,421.59l-5.64-1.1-.51,1.22a.38.38,0,0,1-.07.11,1.76,1.76,0,0,0-.33.68c-.07.34.23.69.89,1.05a1.62,1.62,0,0,1,.63.51,1.29,1.29,0,0,1,0,.66,1.37,1.37,0,0,1-.24.67.7.7,0,0,1-.5,0l-6-1.16c-.33-.06-.45-.31-.37-.73a1.41,1.41,0,0,1,1-1.07,1.65,1.65,0,0,0,1-.75l7.35-15.43a2.5,2.5,0,0,0,.24-.63c0-.28-.22-.6-.83-.95a.7.7,0,0,1-.31-.82,2.07,2.07,0,0,1,.31-.91c.12-.1.37-.11.76,0l8.64,1.68a1.3,1.3,0,0,1,1,.67,6.41,6.41,0,0,1,.25,2.11c0,.42,0,.83,0,1.23L251,424.5a2.64,2.64,0,0,0,1,1.95,1.87,1.87,0,0,1,.34.31c0,.07,0,.26,0,.57a1.5,1.5,0,0,1-.32.83,1.1,1.1,0,0,1-.71,0l-10.05-2c-.3-.06-.41-.26-.35-.61a1.9,1.9,0,0,1,.28-.81,1.71,1.71,0,0,1,.72-.26c.57-.1.88-.31.94-.62A11.12,11.12,0,0,0,242.8,421.59Zm-.3-12.91L237.84,419l5,1Z" transform="translate(-80.56 -7.43)"/><path d="M279.6,407.28a11.74,11.74,0,0,1,5.84,1.5,10.94,10.94,0,0,1,4,4,12.45,12.45,0,0,1,1.44,6.6,11.59,11.59,0,0,1-3.22,8.06q-3.11,3.24-8.67,3.14a10.85,10.85,0,0,1-8.25-3.4,13,13,0,0,1,.41-16.84A11.14,11.14,0,0,1,279.6,407.28Zm1.76,3.36c0-1.17-.59-1.76-1.83-1.79a2.12,2.12,0,0,0-1.35.41,1.33,1.33,0,0,0-.57,1.06l-.33,17a1.54,1.54,0,0,0,.52,1.31,2.08,2.08,0,0,0,1.31.47,1.92,1.92,0,0,0,1.38-.47,1.49,1.49,0,0,0,.54-1.08Z" transform="translate(-80.56 -7.43)"/><path d="M309.15,415.73c2.86.28,4.87.79,6,1.55a4.51,4.51,0,0,1,2,3.46,5.76,5.76,0,0,1-2.3,5.6c-1.8,1.38-4.74,2.3-8.8,2.77l-11.19,1.29c-.46.05-.71-.07-.74-.35l-.1-.84c0-.24.16-.43.56-.59.84-.35,1.24-.77,1.18-1.25l-1.94-16.87a.55.55,0,0,0-.24-.45,5,5,0,0,0-1.14-.26,1,1,0,0,1-.58-.22,2.21,2.21,0,0,1-.16-.75.85.85,0,0,1,.16-.74,1.42,1.42,0,0,1,.81-.28l12.55-1.44a14,14,0,0,1,7.12.61,4.14,4.14,0,0,1,2.84,3.31,3.58,3.58,0,0,1-1.56,3.26A11.86,11.86,0,0,1,309.15,415.73Zm-6.94-7.42.85,7.33,1.21-.14a3.4,3.4,0,0,0,1.75-.61,1.68,1.68,0,0,0,.6-1.44,21.94,21.94,0,0,0-.17-2.39,3.69,3.69,0,0,0-.93-2.53,2.86,2.86,0,0,0-2.09-.36Zm1,8.92,1.21,10.44a7.41,7.41,0,0,0,2.78-.68,1.6,1.6,0,0,0,.69-1.48,34.45,34.45,0,0,0-.28-3.5q0-.51-.33-2.28a6.46,6.46,0,0,0-.52-2.11,1.37,1.37,0,0,0-.79-.49,4.38,4.38,0,0,0-1.54,0Z" transform="translate(-80.56 -7.43)"/><path d="M329.42,414.69l1.79,6.74a1.59,1.59,0,0,0,.27.62,1.27,1.27,0,0,0,.65.19.83.83,0,0,1,.8.61c.14.53.15.87,0,1a1.5,1.5,0,0,1-.8.41l-9.4,2.51c-.54.14-.87,0-1-.49a3.79,3.79,0,0,1-.17-.9c0-.14.13-.27.37-.4.77-.41,1.07-.91.92-1.49l-4.26-15.92c-.15-.59-.6-.86-1.35-.79a2,2,0,0,1-.73,0c-.1,0-.21-.25-.3-.6-.19-.7,0-1.14.65-1.3l12.32-3.29a13.25,13.25,0,0,1,7-.06,5.27,5.27,0,0,1,4.09,3.75q1.08,4-5.34,7.07,6.39-.81,7.44,3.13l.86,3.23c.07.27.3.43.68.47a.85.85,0,0,1,.8.59c.14.53.17.85.09,1s-.34.25-.78.37l-6,1.59a2.4,2.4,0,0,1-2-.27A2.66,2.66,0,0,1,335,420.8l-1.47-5.48c-.28-1.07-1.31-1.36-3.07-.89ZM326.55,404l2.44,9.16,1.45-.39c1.47-.39,2-1.49,1.48-3.29l-1.16-4.37a1.87,1.87,0,0,0-1.13-1.43,4.11,4.11,0,0,0-2.32.12Z" transform="translate(-80.56 -7.43)"/><path d="M356.41,410.83l-5.27,2.27.27,1.3a.42.42,0,0,1,0,.13,1.57,1.57,0,0,0,.11.75c.13.31.57.43,1.33.36a1.47,1.47,0,0,1,.8.07,1.17,1.17,0,0,1,.38.54,1.38,1.38,0,0,1,.18.68c0,.1-.16.2-.4.3l-5.57,2.41q-.47.19-.72-.39a1.42,1.42,0,0,1,.24-1.47,1.64,1.64,0,0,0,.44-1.2l-2.65-16.89a2.13,2.13,0,0,0-.16-.65c-.11-.27-.52-.37-1.22-.32a.71.71,0,0,1-.72-.5,1.94,1.94,0,0,1-.25-.93c0-.15.24-.3.61-.46l8.07-3.49a1.28,1.28,0,0,1,1.22,0,6.21,6.21,0,0,1,1.4,1.6l.73,1,9.6,12.68a2.62,2.62,0,0,0,1.93,1,1.62,1.62,0,0,1,.46.07c.08,0,.18.19.3.47.19.44.26.73.2.87s-.24.28-.56.42l-9.4,4.06c-.28.13-.49,0-.63-.3a1.81,1.81,0,0,1-.23-.82,1.46,1.46,0,0,1,.45-.63c.41-.4.55-.75.42-1A11.22,11.22,0,0,0,356.41,410.83Zm-7.53-10.48,2,11.12,4.7-2Z" transform="translate(-80.56 -7.43)"/><path d="M381.13,399.94l-10-13.76c-.15-.13-.46-.08-.92.14a1.46,1.46,0,0,1-.85.21c-.2,0-.43-.25-.72-.63a.73.73,0,0,1-.16-.74,4.23,4.23,0,0,1,1.15-1l8.92-6.5a11.56,11.56,0,0,1,7.89-2.46q4.06.33,7.71,5.31,3.3,4.54,2.53,8.57A11.17,11.17,0,0,1,391.9,396l-9.84,7.17a1.13,1.13,0,0,1-.66.29c-.16,0-.34-.14-.54-.41a2.33,2.33,0,0,1-.39-.65c0-.11.09-.34.33-.68Q381.61,400.59,381.13,399.94Zm-3.61-19.52L389,396.17l1-.72a2.49,2.49,0,0,0,1.14-1.65,3.47,3.47,0,0,0-.88-2.23L381.77,380a1.88,1.88,0,0,0-1.5-.81,3.23,3.23,0,0,0-2,.76Z" transform="translate(-80.56 -7.43)"/><path d="M396.4,364.61l5.6,5.75,1.13-1.1a2.17,2.17,0,0,0,.56-.78,1.15,1.15,0,0,0-.19-.84,4.2,4.2,0,0,1-.51-1.17.69.69,0,0,1,.25-.52,10.81,10.81,0,0,1,1.54-1.37c.16-.07.39,0,.67.34l3.27,3.35c.2.21.28.4.23.57a3.88,3.88,0,0,1-.93,1.09,2.14,2.14,0,0,1-.87.61,2,2,0,0,1-1.06-.35,2,2,0,0,0-1-.31,1.35,1.35,0,0,0-.65.4l-1.29,1.26,6.76,6.94.88-.86a2.3,2.3,0,0,0,.84-1.36,9.34,9.34,0,0,0-.57-2.55,2.38,2.38,0,0,1-.13-1.29,3.26,3.26,0,0,1,.87-1.19c.69-.66,1.16-.86,1.42-.59a2,2,0,0,1,.28.42l1.61,2.88a3.38,3.38,0,0,1,.46,1q0,.24-.54.78l-11,10.73c-.28.27-.49.4-.64.4s-.41-.19-.77-.56-.2-.6.09-1.09c.46-.75.55-1.25.29-1.52l-12.24-12.56c-.13-.12-.5,0-1.11.34a1.72,1.72,0,0,1-.83.32,1.6,1.6,0,0,1-.66-.5c-.26-.26-.38-.45-.36-.56a1.77,1.77,0,0,1,.5-.64l10.53-10.26a2.11,2.11,0,0,1,.66-.48.78.78,0,0,1,.65.11l3.38,1.77.33.21c.18.18,0,.53-.53,1.05a5.21,5.21,0,0,1-1.32,1,1.94,1.94,0,0,1-1.2-.06,8,8,0,0,0-2.1-.41,1.63,1.63,0,0,0-1.17.46Z" transform="translate(-80.56 -7.43)"/><path d="M435.53,348.54a15.47,15.47,0,0,1-1.82,3.8,11.05,11.05,0,0,1-7.33,5.17,11.49,11.49,0,0,1-8.64-2,11.83,11.83,0,0,1-5.36-7.28,11.14,11.14,0,0,1,1.95-8.92,11.27,11.27,0,0,1,7.2-5.14q4.39-.93,9.12,2.19a11.36,11.36,0,0,1,5.08,7.28,7.3,7.3,0,0,0,2.63-1.71c.3-.3.52-.44.65-.44a8.05,8.05,0,0,1,1.66,1,7.57,7.57,0,0,0,.71.43l.35.21c.71.47.71,1.24,0,2.32a6.41,6.41,0,0,1-1.77,1.69A12.56,12.56,0,0,1,435.53,348.54Zm-5.44-.83-12.22-8.08a1.37,1.37,0,0,0-1.19-.15,2,2,0,0,0-1.08.86,1.81,1.81,0,0,0-.37,1.37,1.36,1.36,0,0,0,.62,1l14.29,9.46a1.37,1.37,0,0,0,1.19.15,1.86,1.86,0,0,0,1.06-.79,2.06,2.06,0,0,0,.36-1.3,1.12,1.12,0,0,0-.35-.88c-.36-.24-1.13,0-2.31.74a.76.76,0,0,1-.88.05l-.33-.19c-.32-.21-.35-.51-.1-.89A12.74,12.74,0,0,1,430.09,347.71Z" transform="translate(-80.56 -7.43)"/><path d="M421.57,328.5l4.34-9c.15-.3.28-.47.4-.52a1.52,1.52,0,0,1,.8.23.9.9,0,0,1,.53,1,1.79,1.79,0,0,0,0,.77c.05.16.24.31.55.46l14.2,6.85a1.2,1.2,0,0,0,1.21-.09,2.7,2.7,0,0,0,1-1.19,2.38,2.38,0,0,0,.22-1.51,1.26,1.26,0,0,0-.64-1l-14.18-6.84a.94.94,0,0,0-.57-.13,1.85,1.85,0,0,0-.64.39,1.19,1.19,0,0,1-1.36.22c-.35-.18-.54-.35-.55-.51a1.35,1.35,0,0,1,.17-.63l2.16-4.48c.24-.5.52-.67.82-.53l.61.3c.27.13.43.24.47.33a1,1,0,0,1,0,.57c-.18.72-.06,1.17.35,1.37l13.82,6.67a3.89,3.89,0,0,1,2.22,3.35,10.85,10.85,0,0,1-1.34,5.7,11.92,11.92,0,0,1-3.94,5.05,4.32,4.32,0,0,1-4.44.24l-13.35-6.44c-.36-.17-.76,0-1.23.54a1.49,1.49,0,0,1-.5.44.92.92,0,0,1-.5-.13,2,2,0,0,1-.86-.6C421.28,329.27,421.35,329,421.57,328.5Z" transform="translate(-80.56 -7.43)"/><path d="M450.16,307.11l-1.87,5.43,1.13.68a.29.29,0,0,1,.11.08,1.74,1.74,0,0,0,.62.43c.32.11.71-.14,1.17-.74.24-.32.43-.51.59-.55a1.15,1.15,0,0,1,.65.08c.37.13.58.23.63.33a.66.66,0,0,1-.05.5l-2,5.73c-.11.32-.37.41-.77.27a1.41,1.41,0,0,1-.92-1.17,1.66,1.66,0,0,0-.59-1.13l-14.26-9.43a2.38,2.38,0,0,0-.59-.33q-.4-.14-1,.69a.71.71,0,0,1-.86.2,2,2,0,0,1-.86-.45c-.08-.12-.06-.38.07-.75l2.87-8.32a1.28,1.28,0,0,1,.81-.92,6.64,6.64,0,0,1,2.12.05l1.22.13,15.85,1.46a2.62,2.62,0,0,0,2.06-.72,1.33,1.33,0,0,1,.36-.29c.08,0,.26,0,.56.09s.71.3.77.44a1,1,0,0,1-.07.7l-3.34,9.68c-.1.29-.31.38-.65.26a1.85,1.85,0,0,1-.76-.38,1.74,1.74,0,0,1-.16-.76q0-.86-.48-1A13.22,13.22,0,0,0,450.16,307.11Zm-12.82-1.5,9.54,6,1.67-4.84Z" transform="translate(-80.56 -7.43)"/><path d="M459.53,285.8l.29-1.28a2,2,0,0,0-.15-1.57,8.4,8.4,0,0,0-1.93-1.74,1.4,1.4,0,0,1-.67-.84,4.15,4.15,0,0,1,.15-1.34,5.67,5.67,0,0,1,.4-1.28.38.38,0,0,1,.45-.2,2.82,2.82,0,0,1,.59.25l3.09,1.54a1.26,1.26,0,0,1,.6.5,1.66,1.66,0,0,1,0,.9l-3.38,14.78q-.21.94-.93.78a1.24,1.24,0,0,1-.67-.28.88.88,0,0,1-.12-.58,1.4,1.4,0,0,0-1.15-1.61l-16.29-3.73c-.33-.08-.64.14-.91.64a1.68,1.68,0,0,1-.59.77,1.39,1.39,0,0,1-.76,0,1.34,1.34,0,0,1-.72-.31,1.16,1.16,0,0,1,0-.75l2.37-10.36a1.37,1.37,0,0,1,.36-.76c.14-.11.47-.11,1,0a1,1,0,0,1,.58.29,1.55,1.55,0,0,1,.1.81c0,.79.2,1.23.65,1.33Z" transform="translate(-80.56 -7.43)"/><path d="M441.75,273.52l-.73-.11q-.43-.06-.33-.81l1.52-10.93a1.78,1.78,0,0,1,.21-.79c.08-.11.28-.15.61-.1a2.07,2.07,0,0,1,.9.25.77.77,0,0,1,.14.59c0,1,.28,1.48.91,1.57l16.74,2.33c.35,0,.68-.26,1-.92a2,2,0,0,1,.46-.75.82.82,0,0,1,.55-.06l.54.08c.3,0,.46.11.48.2a2.47,2.47,0,0,1,0,.72l-1.55,11.14c-.06.42-.19.62-.39.59a3.55,3.55,0,0,1-1.21-.28c-.14-.1-.22-.38-.24-.85,0-.84-.23-1.29-.62-1.34l-16.54-2.3a1.5,1.5,0,0,0-.91.11,1.85,1.85,0,0,0-.64.93,1.72,1.72,0,0,1-.37.66A.59.59,0,0,1,441.75,273.52Z" transform="translate(-80.56 -7.43)"/><path d="M462.26,259.54l-17-.43c-.18,0-.33.31-.44.82a1.46,1.46,0,0,1-.35.79,1.41,1.41,0,0,1-.94.19.73.73,0,0,1-.68-.32,4.08,4.08,0,0,1-.13-1.55l.28-11a11.62,11.62,0,0,1,2.85-7.76q2.74-3,8.91-2.87,5.63.13,8.34,3.2a11.19,11.19,0,0,1,2.59,8l-.31,12.17a1.28,1.28,0,0,1-.16.7.9.9,0,0,1-.66.18,3.17,3.17,0,0,1-.76-.09c-.1-.05-.21-.28-.34-.68Q463.06,259.56,462.26,259.54Zm-17.68-9,19.47.49,0-1.22a2.45,2.45,0,0,0-.61-1.91,3.45,3.45,0,0,0-2.31-.66l-14.36-.36a1.86,1.86,0,0,0-1.55.7,3.23,3.23,0,0,0-.65,2.08Z" transform="translate(-80.56 -7.43)"/><path d="M459.65,223.56l.64,5.71,1.32.12s.07,0,.13,0a1.61,1.61,0,0,0,.75.11c.33,0,.58-.42.73-1.16a1.45,1.45,0,0,1,.3-.75,1.1,1.1,0,0,1,.63-.21,1.35,1.35,0,0,1,.7,0c.09.06.14.22.17.47l.68,6c0,.34-.16.53-.59.58a1.43,1.43,0,0,1-1.33-.67,1.64,1.64,0,0,0-1-.76l-16.93-2.41a2.28,2.28,0,0,0-.67,0c-.28,0-.5.39-.65,1.07a.72.72,0,0,1-.69.55,2,2,0,0,1-1,0c-.13-.07-.22-.31-.26-.71l-1-8.74a1.27,1.27,0,0,1,.34-1.18,6.37,6.37,0,0,1,1.94-.86l1.15-.41L460,214.84a2.58,2.58,0,0,0,1.56-1.54,1.64,1.64,0,0,1,.2-.42,1.07,1.07,0,0,1,.54-.15,1.53,1.53,0,0,1,.89.06,1,1,0,0,1,.24.67l1.13,10.17c0,.31-.12.48-.48.52a1.92,1.92,0,0,1-.85,0,1.61,1.61,0,0,1-.46-.62c-.27-.5-.56-.74-.88-.71A12.44,12.44,0,0,0,459.65,223.56Zm-12.22,4.14,11.21,1.37-.57-5.1Z" transform="translate(-80.56 -7.43)"/><path d="M459.42,208.81l-16.53,4.1c-.17.09-.24.4-.21.91a1.53,1.53,0,0,1-.12.86,1.49,1.49,0,0,1-.86.43A.71.71,0,0,1,441,215a4,4,0,0,1-.54-1.45l-2.66-10.72a11.58,11.58,0,0,1,.7-8.23q1.83-3.65,7.82-5.14,5.46-1.35,8.89.88a11.14,11.14,0,0,1,4.62,7l2.93,11.81a1.25,1.25,0,0,1,0,.71c-.07.15-.26.27-.59.35a2.39,2.39,0,0,1-.75.12q-.17,0-.51-.57C460.43,209,459.94,208.68,459.42,208.81Zm-19.44-4,18.9-4.69-.29-1.18a2.45,2.45,0,0,0-1.09-1.68,3.47,3.47,0,0,0-2.4,0l-14,3.46a1.86,1.86,0,0,0-1.31,1.08,3.24,3.24,0,0,0-.07,2.18Z" transform="translate(-80.56 -7.43)"/><path d="M432.64,181.1l7.51-2.85-.56-1.46a2,2,0,0,0-.49-.83,1.22,1.22,0,0,0-.85-.17,4,4,0,0,1-1.28,0,.7.7,0,0,1-.37-.44,10.55,10.55,0,0,1-.65-2c0-.17.19-.33.58-.48l4.37-1.66a.61.61,0,0,1,.62,0,4,4,0,0,1,.63,1.29,1.23,1.23,0,0,1-.53,1.88,1.85,1.85,0,0,0-.68.79,1.31,1.31,0,0,0,.11.76l.63,1.68,9.06-3.45-.43-1.14a2.37,2.37,0,0,0-.92-1.32,10.36,10.36,0,0,0-2.57-.49,2.4,2.4,0,0,1-1.23-.39,3.17,3.17,0,0,1-.74-1.27c-.34-.89-.33-1.4,0-1.54a2,2,0,0,1,.49-.09l3.29-.33a3.35,3.35,0,0,1,1.11,0c.15.05.31.32.5.81l5.46,14.37a1.12,1.12,0,0,1,.11.75c-.06.13-.33.3-.82.48-.3.12-.62-.06-1-.52-.5-.71-.93-1-1.28-.87l-16.39,6.23c-.16.08-.21.46-.13,1.16a1.7,1.7,0,0,1,0,.89,1.6,1.6,0,0,1-.72.41c-.34.13-.56.16-.66.1a1.75,1.75,0,0,1-.38-.72L429.22,177a2.16,2.16,0,0,1-.18-.79.8.8,0,0,1,.36-.56l3-2.39a1.5,1.5,0,0,1,.32-.22c.23-.09.48.21.75.91a5.32,5.32,0,0,1,.43,1.62,1.89,1.89,0,0,1-.54,1.07,7.59,7.59,0,0,0-1.2,1.77,1.63,1.63,0,0,0-.05,1.26Z" transform="translate(-80.56 -7.43)"/></svg>